<svg data-name="Layer 2" viewBox="0 0 35 35" xmlns="http://www.w3.org/2000/svg"><path d="M25.37 34.75H9.63a9.39 9.39 0 0 1-9.38-9.38V9.63A9.39 9.39 0 0 1 9.63.25h15.74a9.39 9.39 0 0 1 9.38 9.38v15.74a9.39 9.39 0 0 1-9.38 9.38Zm-15.74-32a6.89 6.89 0 0 0-6.88 6.88v15.74a6.89 6.89 0 0 0 6.88 6.88h15.74a6.89 6.89 0 0 0 6.88-6.88V9.63a6.89 6.89 0 0 0-6.88-6.88Z" fill="#7650dc" class="fill-000000"></path><path d="M17.5 26.53a9 9 0 1 1 9-9 9 9 0 0 1-9 9Zm0-15.53a6.53 6.53 0 1 0 6.5 6.5 6.54 6.54 0 0 0-6.5-6.5ZM26.52 9.84a1.5 1.5 0 0 0 0-3 1.5 1.5 0 0 0 0 3Z" fill="#7650dc" class="fill-000000"></path></svg>